HIERARCHY
ROOT Hips
{
	OFFSET -0.001795 -0.223333 0.028219
	CHANNELS 6 Xposition Yposition Zposition Zrotation Yrotation Xrotation 
	JOINT LeftUpLeg
	{
		OFFSET 0.069520 -0.091406 -0.006815
		CHANNELS 3 Zrotation Yrotation Xrotation
		JOINT LeftLeg
		{
			OFFSET 0.034277 -0.375199 -0.004496
			CHANNELS 3 Zrotation Yrotation Xrotation
			JOINT LeftFoot
			{
				OFFSET -0.013596 -0.397961 -0.043693
				CHANNELS 3 Zrotation Yrotation Xrotation
				JOINT LeftToe
				{
					OFFSET 0.026358 -0.055791 0.119288
					CHANNELS 3 Zrotation Yrotation Xrotation
					End Site
					{
						OFFSET 0.000000 0.000000 0.000000
					}
				}
			}
		}
	}
	JOINT RightUpLeg
	{
		OFFSET -0.067670 -0.090522 -0.004320
		CHANNELS 3 Zrotation Yrotation Xrotation
		JOINT RightLeg
		{
			OFFSET -0.038290 -0.382569 -0.008850
			CHANNELS 3 Zrotation Yrotation Xrotation
			JOINT RightFoot
			{
				OFFSET 0.015774 -0.398415 -0.042312
				CHANNELS 3 Zrotation Yrotation Xrotation
				JOINT RightToe
				{
					OFFSET -0.025372 -0.048144 0.123348
					CHANNELS 3 Zrotation Yrotation Xrotation
					End Site
					{
						OFFSET 0.000000 0.000000 0.000000
					}
				}
			}
		}
	}
	JOINT Spine
	{
		OFFSET -0.002533 0.108963 -0.026696
		CHANNELS 3 Zrotation Yrotation Xrotation
		JOINT Spine1
		{
			OFFSET 0.005487 0.135180 0.001092
			CHANNELS 3 Zrotation Yrotation Xrotation
			JOINT Spine2
			{
				OFFSET 0.001457 0.052922 0.025425
				CHANNELS 3 Zrotation Yrotation Xrotation
				JOINT Neck
				{
					OFFSET -0.002778 0.213870 -0.042857
					CHANNELS 3 Zrotation Yrotation Xrotation
					JOINT Head
					{
						OFFSET 0.005152 0.064970 0.051349
						CHANNELS 3 Zrotation Yrotation Xrotation
						End Site
						{
							OFFSET 0.000000 0.000000 0.000000
						}
					}
				}
				JOINT LeftShoulder
				{
					OFFSET 0.078845 0.121749 -0.034090
					CHANNELS 3 Zrotation Yrotation Xrotation
					JOINT LeftArm
					{
						OFFSET 0.090977 0.030469 -0.008868
						CHANNELS 3 Zrotation Yrotation Xrotation
						JOINT LeftForeArm
						{
							OFFSET 0.259612 -0.012772 -0.027456
							CHANNELS 3 Zrotation Yrotation Xrotation
							JOINT LeftHand
							{
								OFFSET 0.249234 0.008986 -0.001171
								CHANNELS 3 Zrotation Yrotation Xrotation
								End Site
								{
									OFFSET 0.000000 0.000000 0.000000
								}
							}
						}
					}
				}
				JOINT RightShoulder
				{
					OFFSET -0.081759 0.118833 -0.038615
					CHANNELS 3 Zrotation Yrotation Xrotation
					JOINT RightArm
					{
						OFFSET -0.096012 0.032551 -0.009143
						CHANNELS 3 Zrotation Yrotation Xrotation
						JOINT RightForeArm
						{
							OFFSET -0.253742 -0.013329 -0.021401
							CHANNELS 3 Zrotation Yrotation Xrotation
							JOINT RightHand
							{
								OFFSET -0.255298 0.007772 -0.005559
								CHANNELS 3 Zrotation Yrotation Xrotation
								End Site
								{
									OFFSET 0.000000 0.000000 0.000000
								}
							}
						}
					}
				}
			}
		}
	}
}
MOTION
Frames: 13
Frame Time: 0.050000
0.241506 0.910315 0.520781 0.638506 0.693741 -2.783784 3.823522 -0.585653 -9.580520 -8.159939 1.417144 14.253920 7.792644 15.892059 -0.952653 0.000000 0.000000 0.000000 -11.036918 0.192518 -12.970275 12.892796 -3.474968 26.358190 -12.510460 -29.003843 3.042345 0.000000 0.000000 0.000000 -5.319126 0.134588 29.557573 6.523267 -1.679823 -16.147142 9.183450 8.210092 26.700455 9.662623 -1.758330 -32.250053 0.000000 0.000000 0.000000 -33.191889 -6.921043 -1.301991 -42.883580 -6.567037 -3.726476 -115.397544 -71.665898 101.301333 0.000000 0.000000 0.000000 23.254281 22.645619 14.396836 37.044844 41.027153 6.440769 -24.925999 61.865417 -10.358406 0.000000 0.000000 0.000000 
0.238983 0.910316 0.516747 0.703023 0.874410 -2.660189 3.554808 -0.600719 -9.437727 -8.146707 1.390551 13.856790 8.038847 16.309100 -1.613253 0.000000 0.000000 0.000000 -11.103725 0.182810 -13.755314 11.721538 -3.174156 27.609481 -12.489584 -28.661142 4.566131 0.000000 0.000000 0.000000 -4.771373 -0.022166 29.993109 6.545187 -1.617323 -16.863986 9.186285 7.946922 26.708227 9.094722 -1.678257 -30.874490 0.000000 0.000000 0.000000 -33.264125 -7.169552 -1.067801 -43.009285 -8.054987 -3.248588 -114.720208 -71.874412 100.843276 0.000000 0.000000 0.000000 23.223787 23.488865 14.854190 35.239127 41.935745 6.225572 -26.424574 57.410154 -10.419871 0.000000 0.000000 0.000000 
0.235307 0.910939 0.513327 0.788237 1.092603 -2.384054 3.185489 -0.603090 -8.989005 -7.999726 1.342203 13.737881 7.844167 15.826021 -2.283385 0.000000 0.000000 0.000000 -11.577264 0.124777 -15.114623 11.129181 -3.050657 28.552424 -12.074087 -27.695203 5.432126 0.000000 0.000000 0.000000 -3.979082 -0.251790 30.195873 6.694116 -1.660670 -16.825543 9.370978 7.939772 26.379194 8.696791 -1.654067 -29.338142 0.000000 0.000000 0.000000 -33.924989 -7.700967 -0.857491 -42.856076 -9.045021 -2.815259 -114.093611 -72.330311 100.578536 0.000000 0.000000 0.000000 22.804209 23.707520 14.907824 33.837591 42.568541 6.044910 -26.428242 53.068708 -9.585187 0.000000 0.000000 0.000000 
0.230302 0.912310 0.510566 0.802603 0.922566 -1.913253 3.193532 -0.584897 -8.691977 -7.613688 1.244495 13.236629 8.051984 16.253257 -2.476887 0.000000 0.000000 0.000000 -11.843445 0.109354 -16.097300 10.525781 -2.782122 28.192394 -11.728405 -26.908144 6.238022 0.000000 0.000000 0.000000 -3.246141 -0.443217 30.883641 6.650202 -1.592819 -17.395169 9.598503 8.159634 26.336260 8.214620 -1.355763 -29.364485 0.000000 0.000000 0.000000 -34.075264 -7.961097 -0.766930 -42.885858 -9.650108 -2.578405 -116.672622 -72.905224 104.012985 0.000000 0.000000 0.000000 22.801367 24.030909 15.162407 32.419232 43.070042 5.754652 -25.035046 49.080766 -8.219343 0.000000 0.000000 0.000000 
0.223301 0.914803 0.508857 0.578623 0.583936 -1.413639 3.373791 -0.554549 -8.398406 -6.987301 1.086449 12.125123 7.938208 16.082556 -2.174897 0.000000 0.000000 0.000000 -11.518052 0.179785 -16.848800 10.002428 -2.478809 26.844377 -11.144424 -25.712923 6.956479 0.000000 0.000000 0.000000 -2.768098 -0.554881 31.250129 7.116150 -1.790813 -16.818307 9.719515 8.401392 25.338818 8.095524 -1.429614 -28.151708 0.000000 0.000000 0.000000 -34.228550 -7.850720 -0.926596 -43.156908 -9.921516 -2.390157 -116.489791 -73.457969 104.288157 0.000000 0.000000 0.000000 22.433114 24.206534 15.153193 32.558863 42.773898 5.813382 -23.892988 47.188781 -7.413770 0.000000 0.000000 0.000000 
0.213930 0.916851 0.509026 0.349144 -0.664561 -0.482185 3.735189 -0.532748 -8.495933 -6.726557 1.035248 10.678921 8.509380 17.435036 -1.122787 0.000000 0.000000 0.000000 -11.098342 0.326184 -17.505391 9.243987 -1.972106 24.236967 -10.654270 -24.801014 7.324109 0.000000 0.000000 0.000000 -2.544106 -0.497345 30.873950 7.517845 -1.958268 -16.505014 9.669723 8.515344 25.195380 7.321419 -1.242839 -26.826447 0.000000 0.000000 0.000000 -33.995629 -7.643054 -0.799099 -43.325672 -10.618401 -2.239403 -115.771162 -74.435769 104.696903 0.000000 0.000000 0.000000 22.538037 24.355757 15.149217 34.699468 42.759803 6.478916 -20.576972 47.045023 -5.969179 0.000000 0.000000 0.000000 
0.202301 0.917998 0.511124 -0.018576 -1.519869 0.385762 4.366600 -0.491014 -8.522820 -5.918466 0.877815 9.994239 8.852343 18.194274 -1.227683 0.000000 0.000000 0.000000 -10.133595 0.513802 -17.505760 8.258553 -1.492199 21.213185 -10.552867 -24.598693 8.006698 0.000000 0.000000 0.000000 -2.494217 -0.434963 30.701104 8.140005 -2.180936 -16.258934 9.616146 7.901628 24.997268 6.726090 -1.126575 -26.299174 0.000000 0.000000 0.000000 -33.793665 -6.960150 -0.762980 -43.606638 -10.620150 -2.396627 -111.680160 -75.570867 101.773573 0.000000 0.000000 0.000000 21.687085 24.369430 14.613975 38.165543 41.099031 7.070232 -16.794096 50.404817 -4.686643 0.000000 0.000000 0.000000 
0.188764 0.918256 0.514783 -0.111124 -2.530957 0.947122 5.217274 -0.414776 -8.229273 -5.942996 0.902327 9.576617 9.677192 19.923681 -0.199906 0.000000 0.000000 0.000000 -9.237654 0.680281 -17.423029 7.466314 -1.149947 19.098651 -9.646048 -22.924372 9.050741 0.000000 0.000000 0.000000 -2.347034 -0.383631 30.485816 8.664138 -2.409055 -15.746798 8.866284 7.122305 24.626631 5.902666 -0.831733 -26.421453 0.000000 0.000000 0.000000 -33.299361 -6.418985 -0.482208 -44.092449 -10.569660 -2.617497 -106.761736 -76.787014 98.237546 0.000000 0.000000 0.000000 22.162004 24.298863 14.321709 40.665729 39.976296 7.447626 -11.792695 52.149097 -2.553778 0.000000 0.000000 0.000000 
0.173957 0.918092 0.518892 -0.457146 -3.568395 0.966076 6.688775 -0.292688 -8.000264 -6.139432 1.006079 10.685127 10.112968 20.845032 -0.263207 0.000000 0.000000 0.000000 -8.074320 0.836270 -16.810852 7.406074 -1.049426 17.737802 -9.546710 -22.793495 8.929972 0.000000 0.000000 0.000000 -2.316224 -0.304704 30.911987 8.525571 -2.342156 -16.116587 8.723154 6.039028 24.932124 5.179600 -0.639217 -26.719089 0.000000 0.000000 0.000000 -33.240840 -5.947019 -0.037007 -43.795720 -10.974393 -2.730975 -105.562932 -77.997983 98.854151 0.000000 0.000000 0.000000 21.925095 23.540459 13.353002 43.791450 38.239356 7.669751 -6.483503 54.614287 -0.036701 0.000000 0.000000 0.000000 
0.158845 0.918236 0.522996 -0.915494 -4.746167 0.909915 8.307757 -0.153812 -8.066244 -6.500979 1.175571 12.038059 10.666585 21.935068 0.506686 0.000000 0.000000 0.000000 -6.814329 0.999099 -16.525743 7.172372 -0.918290 17.021231 -9.113294 -22.053395 8.595457 0.000000 0.000000 0.000000 -1.833221 -0.344615 31.604878 7.847649 -2.178613 -15.889851 8.146502 4.752176 24.896979 4.521722 -0.684928 -25.466764 0.000000 0.000000 0.000000 -32.968831 -5.690348 0.667136 -43.480308 -11.724838 -2.728666 -110.338415 -79.712380 106.327565 0.000000 0.000000 0.000000 22.544511 23.517404 12.902653 44.422294 36.908406 7.357537 -5.084299 55.839385 0.489389 0.000000 0.000000 0.000000 
0.144806 0.918624 0.526385 -1.320010 -5.741868 0.725639 9.819115 -0.006929 -8.576169 -6.826969 1.385586 14.154185 10.633191 21.861584 0.894918 0.000000 0.000000 0.000000 -5.742700 1.114040 -16.154541 7.656905 -0.979377 16.700348 -9.140963 -22.132609 8.057559 0.000000 0.000000 0.000000 -1.600854 -0.319555 32.440667 7.398657 -2.067970 -15.788234 7.612782 3.937866 24.949135 3.814584 -0.501652 -25.151013 0.000000 0.000000 0.000000 -32.421879 -6.220528 1.667640 -43.639592 -13.321670 -2.382018 -127.422803 -80.629029 126.357021 0.000000 0.000000 0.000000 21.994713 23.615113 12.440189 45.060960 36.375275 7.357682 -6.141802 55.801463 -0.202557 0.000000 0.000000 0.000000 
0.133178 0.918639 0.529459 -1.619401 -5.753349 0.911891 11.151343 0.110195 -9.203956 -7.344372 1.586510 15.461202 10.711089 21.920081 1.679532 0.000000 0.000000 0.000000 -4.958312 1.207259 -16.297727 7.810907 -1.013035 16.531427 -9.150444 -22.157252 8.193665 0.000000 0.000000 0.000000 -1.438390 -0.370467 32.882613 7.279833 -2.066266 -15.387272 7.081456 2.816715 24.692617 2.779613 -0.184053 -23.818238 0.000000 0.000000 0.000000 -32.322177 -6.406525 2.301190 -43.740257 -15.524572 -1.756266 -142.453667 -80.055035 143.505973 0.000000 0.000000 0.000000 22.404721 23.695195 12.225753 43.380636 35.255815 6.559590 -8.513345 55.226304 -1.613939 0.000000 0.000000 0.000000 
0.124407 0.918688 0.531925 -1.662273 -5.889700 0.817164 11.770012 0.188754 -9.903440 -8.013971 1.857773 16.832215 10.637183 21.718144 2.228816 0.000000 0.000000 0.000000 -4.856961 1.195642 -15.967234 8.198711 -1.100341 16.854883 -8.724450 -21.360499 7.886085 0.000000 0.000000 0.000000 -1.133728 -0.447841 33.717790 6.599866 -1.863156 -15.292214 6.537718 2.050024 24.773762 2.505641 -0.190338 -23.275615 0.000000 0.000000 0.000000 -31.592228 -7.609806 3.519215 -43.678599 -18.053521 -0.995354 -159.846420 -78.117013 163.741894 0.000000 0.000000 0.000000 21.786089 23.812970 11.931519 42.066637 34.306989 5.923698 -12.158887 53.890324 -3.524760 0.000000 0.000000 0.000000 
